<?xml version="1.0" encoding="UTF-8"?>
<svg version="1.1" xmlns="http://www.w3.org/2000/svg" width="296" height="452">
<path d="M0 0 C97.68 0 195.36 0 296 0 C296 149.16 296 298.32 296 452 C198.32 452 100.64 452 0 452 C0 302.84 0 153.68 0 0 Z " fill="#FDFDFD" transform="translate(0,0)"/>
<path d="M0 0 C12.66326331 3.86619377 22.97801397 10.47104727 33 19 C34.010625 19.7425 35.02125 20.485 36.0625 21.25 C48.03848411 31.43802029 55.78289333 48.18869854 60 63 C60.27457031 63.86625 60.54914063 64.7325 60.83203125 65.625 C70.09074962 96.27455048 64.88968236 131.00365856 50 159 C44.04729895 169.52290788 36.54867036 178.49983274 28 187 C27.26265625 187.73734375 26.5253125 188.4746875 25.765625 189.234375 C4.45813674 209.26020983 -24.43165979 219.48077131 -53.42578125 219.1953125 C-55.09618721 219.19106766 -55.09618721 219.19106766 -56.80033875 219.18673706 C-60.30450894 219.17567702 -63.80840905 219.15060022 -67.3125 219.125 C-69.71028273 219.11495184 -72.10806952 219.10582923 -74.50585938 219.09765625 C-80.33732938 219.07578441 -86.16864539 219.04245186 -92 219 C-92.06253464 219.71715683 -92.12506927 220.43431366 -92.1894989 221.17320251 C-92.8551931 228.67353003 -93.74760793 236.10825552 -94.8125 243.5625 C-94.96525391 244.71685547 -95.11800781 245.87121094 -95.27539062 247.06054688 C-97.22893592 260.67359176 -102.31360934 273.88373871 -113.25 282.875 C-126.5764832 292.25629368 -140.69826484 296.25214564 -156.953125 293.5 C-159.70810783 292.8073186 -162.33123682 291.97224853 -165 291 C-165.91523438 290.67128906 -166.83046875 290.34257812 -167.7734375 290.00390625 C-178.91413598 285.49457591 -188.41821057 276.83516437 -193.4375 265.85546875 C-202.80537001 242.56886006 -197.9252376 211.82207351 -189.80859375 188.58984375 C-188.6640718 185.96462013 -187.39954389 183.49746194 -186 181 C-185.26523438 179.56720703 -185.26523438 179.56720703 -184.515625 178.10546875 C-175.5611796 161.49710454 -160.34832158 147.50448045 -142.18359375 141.70703125 C-130.71397066 138.36076003 -119.87627065 137.8324664 -108 138 C-107.97421875 137.46375 -107.9484375 136.9275 -107.921875 136.375 C-106.45126176 116.05379886 -99.11592638 97.84568046 -84 84 C-67.9893289 70.64956348 -49.02909518 67.30259954 -28.81298828 67.58837891 C-26.07938472 67.62562146 -23.34711571 67.62939192 -20.61328125 67.62890625 C-18.86977987 67.63871433 -17.12628763 67.65036112 -15.3828125 67.6640625 C-14.16115891 67.66740097 -14.16115891 67.66740097 -12.91482544 67.67080688 C-7.23239382 67.76760618 -7.23239382 67.76760618 -5 70 C-4.74121094 72.49926758 -4.74121094 72.49926758 -4.734375 75.64453125 C-4.73179687 76.79759766 -4.72921875 77.95066406 -4.7265625 79.13867188 C-4.73429688 80.35103516 -4.74203125 81.56339844 -4.75 82.8125 C-4.74226562 83.98232422 -4.73453125 85.15214844 -4.7265625 86.35742188 C-4.77309648 107.42568301 -9.99833868 127.20004092 -25.1875 142.37890625 C-38.98025507 155.23298771 -55.15779668 160.03326051 -73.625 160.625 C-74.62917969 160.66367187 -75.63335937 160.70234375 -76.66796875 160.7421875 C-79.11181005 160.83528622 -81.55566596 160.92110913 -84 161 C-85.32398426 169.09883991 -86.42295015 177.19125387 -87.30224609 185.34936523 C-87.63954508 188.38470256 -88.030743 191.09222901 -89 194 C-82.42006069 193.93231232 -75.84068389 193.8422502 -69.26123047 193.73754883 C-67.02887689 193.70455442 -64.79644499 193.67644565 -62.56396484 193.65356445 C-47.07905079 193.49060186 -32.73887489 193.00011882 -18.3125 186.75 C-17.59755371 186.44626465 -16.88260742 186.1425293 -16.14599609 185.82958984 C-10.0072598 183.14570942 -4.41152751 179.96512845 1 176 C1.91136719 175.33355469 2.82273438 174.66710937 3.76171875 173.98046875 C22.52356304 159.45770225 35.08834247 137.10864611 38.125 113.5625 C41.03851758 89.56816412 37.41653891 66.04575759 22.625 46.3125 C17.42413158 39.94200396 12.70205573 34.81245066 5.27734375 31.12890625 C1.77298996 28.93715172 0.26564093 27.92224709 -0.89111328 23.90625 C-1.08333987 20.23600359 -0.96229188 16.72703229 -0.6875 13.0625 C-0.61305664 11.17821289 -0.61305664 11.17821289 -0.53710938 9.25585938 C-0.40781775 6.16461424 -0.22749301 3.08531428 0 0 Z " fill="#010101" transform="translate(211,110)"/>
<path d="M0 0 C13.15199307 10.4423907 18.79134901 24.86857967 21 41 C21.61411523 48.44175604 21.56695079 55.91292708 21.5625 63.375 C21.56611838 66.28031812 21.57562848 69.18504653 21.60325623 72.09024048 C21.61995336 73.87757856 21.62299248 75.66511352 21.61024475 77.45248413 C21.64917708 81.99136105 21.77402317 84.54792281 25 88 C25.86479252 93.12842075 26.22898382 98.62157823 23.79296875 103.3359375 C20.61752845 107.14646586 17.45165453 109.64332744 12.44921875 110.37109375 C6.76146415 110.5078573 2.79187461 110.26516604 -1.62890625 106.48046875 C-5.41175384 102.39585554 -6.49823814 98.37931939 -6.30078125 92.96484375 C-5.78704659 89.60888879 -4.42255246 86.42255246 -2 84 C-1.89177022 82.66671829 -1.85100776 81.32784658 -1.83886719 79.99023438 C-1.82925964 79.13844604 -1.8196521 78.28665771 -1.80975342 77.40905762 C-1.80550354 76.4800061 -1.80125366 75.55095459 -1.796875 74.59375 C-1.79117493 73.63988403 -1.78547485 72.68601807 -1.77960205 71.70324707 C-1.77013069 69.67554845 -1.76360964 67.64783429 -1.75976562 65.62011719 C-1.75012749 62.54073381 -1.71915281 59.46203709 -1.6875 56.3828125 C-1.68096332 54.41146229 -1.67571547 52.44010731 -1.671875 50.46875 C-1.6533548 49.0994635 -1.6533548 49.0994635 -1.63446045 47.70251465 C-1.66851987 37.74939198 -4.68187147 29.05837913 -11.1875 21.4375 C-19.53915648 14.19939771 -27.01835391 10.49342489 -38.234375 10.75390625 C-48.06821046 11.62895093 -56.51797285 16.68506786 -62.8125 24.1875 C-70.53995447 35.32885317 -70.63301345 46.2171652 -70.52148438 59.35400391 C-70.4998994 62.38914531 -70.52143186 65.42195858 -70.546875 68.45703125 C-70.54423415 70.39583853 -70.5391142 72.33464437 -70.53125 74.2734375 C-70.53934692 75.17556976 -70.54744385 76.07770203 -70.55578613 77.00717163 C-70.47591364 82.3602238 -69.89778682 85.02521752 -66 89 C-64.77404871 94.18281476 -65.51800911 98.85881627 -68.1875 103.4375 C-70.4793109 106.58001079 -72.24051872 108.69235434 -76 110 C-81.27165419 110.63776521 -85.56105179 110.65406737 -90.4375 108.4375 C-94.89097689 104.20126588 -97.20056666 100.55656096 -97.4375 94.4375 C-97.25714136 90.3516831 -96.02713339 87.56775476 -94 84 C-93.62897862 82.34131618 -93.28944493 80.67484642 -93 79 C-95.37753738 79.06049713 -97.74919061 79.14767113 -100.125 79.25 C-100.79015625 79.26417969 -101.4553125 79.27835937 -102.140625 79.29296875 C-107.170065 79.53950993 -110.11012583 80.85326597 -114 84 C-119.19759022 91.79638532 -119.35282163 102.27314782 -120.43359375 111.328125 C-121.18490834 117.60589697 -122.02608782 123.87204375 -122.85913086 130.1394043 C-124.3517302 141.47728211 -125.7624596 152.80783967 -126.69836426 164.20625305 C-127.01945974 168.05716564 -127.37691087 171.90434433 -127.73779297 175.75170898 C-127.91423509 177.72723646 -128.07443254 179.70427499 -128.21923828 181.68237305 C-129.45448765 198.24964621 -129.45448765 198.24964621 -133.19384766 202.48461914 C-135.75030009 203.99275773 -138.21183838 205.00125957 -141 206 C-143.28080856 207.54421079 -145.26489227 209.27767698 -147.375 211.0625 C-148.84066406 212.28646484 -148.84066406 212.28646484 -150.3359375 213.53515625 C-153.06268038 215.93166008 -153.06268038 215.93166008 -155.2265625 218.80859375 C-155.81179687 219.53175781 -156.39703125 220.25492188 -157 221 C-157.66 221 -158.32 221 -159 221 C-159.14938874 214.32503952 -158.60407349 208.03459042 -157.625 201.4375 C-157.34562638 199.47796821 -157.06698429 197.51833198 -156.7890625 195.55859375 C-156.65274414 194.60710449 -156.51642578 193.65561523 -156.37597656 192.67529297 C-155.87648192 189.12109665 -155.43386358 185.56282891 -155 182 C-154.22363273 175.67907645 -153.37161942 169.37095341 -152.5 163.0625 C-151.60115765 156.54811779 -150.74390289 150.03392082 -150 143.5 C-149.18634365 136.37078027 -148.24774826 129.26302859 -147.23950195 122.15869141 C-146.53902816 117.17022258 -145.89647396 112.18256548 -145.3526001 107.17428589 C-145.05204454 104.42086074 -144.73443359 101.66948885 -144.41644287 98.91802979 C-144.19409986 96.93389555 -143.99536528 94.94716014 -143.79736328 92.96044922 C-142.24741667 79.69941427 -137.48322463 69.48393635 -127 61 C-116.3427496 53.4902277 -105.51953507 53.72349493 -93 54 C-93.04640625 53.175 -93.0928125 52.35 -93.140625 51.5 C-93.65440442 35.05905869 -89.59257504 20.40292678 -78.6875 7.75 C-56.75088333 -15.47700588 -26.24369395 -18.40418367 0 0 Z " fill="#010101" transform="translate(185,53)"/>
<path d="M0 0 C1.62004423 1.62004423 1.18314223 3.35192166 1.20703125 5.59375 C1.14336875 12.29233963 0.12198 18.79829163 -0.96539307 25.39086914 C-1.56399725 29.02817634 -2.13369774 32.66992059 -2.69921875 36.3125 C-2.81309937 37.04569458 -2.92697998 37.77888916 -3.04431152 38.53430176 C-4.10856892 45.50165052 -4.89785415 52.48985164 -5.625 59.5 C-9.16523757 92.78066631 -9.16523757 92.78066631 -18.9375 101.9375 C-25.16359728 106.94620395 -31.17802717 107.78704061 -39 107 C-47.38224057 104.97108311 -53.42390532 100.43813018 -58.1328125 93.27734375 C-66.000418 79.00011558 -60.0986949 56.5188223 -55.8671875 41.84375 C-50.6579564 26.25055493 -41.97922349 13.27863654 -27.3828125 5.1796875 C-18.43007142 0.74734683 -9.94341286 -0.57593873 0 0 Z " fill="#FBFBFA" transform="translate(99,272)"/>
<path d="M0 0 C19.47 0 38.94 0 59 0 C59 8.25 59 16.5 59 25 C39.53 25 20.06 25 0 25 C0 16.75 0 8.5 0 0 Z " fill="#000000" transform="translate(120,107)"/>
<path d="M0 0 C0.96099609 0.01353516 1.92199219 0.02707031 2.91210938 0.04101562 C5.25451752 0.07597694 7.59569156 0.12503896 9.9375 0.1875 C10.10503852 14.59581257 6.41199989 25.40826979 -3.6953125 35.99609375 C-11.48509978 43.20743148 -22.96712988 46.97103108 -33.51953125 47.29296875 C-34.77830078 47.24076172 -34.77830078 47.24076172 -36.0625 47.1875 C-33.07857573 37.63894234 -24.82629578 30.77608369 -17.80859375 24.09960938 C-13.66017199 20.06489672 -10.6630363 16.36836117 -8.0625 11.1875 C-23.68206847 15.26387421 -33.60207586 21.58333461 -44.0625 34.1875 C-45.0625 32.1875 -45.0625 32.1875 -44.56640625 29.9375 C-40.96603084 19.42022078 -34.51583856 10.16126326 -24.3125 5.125 C-16.03175646 1.2673083 -9.16983039 -0.24886805 0 0 Z " fill="#F6F6F6" transform="translate(173.0625,200.8125)"/>
</svg>
